<?xml version="1.0" standalone="no"?>
<!DOCTYPE svg PUBLIC "-//W3C//DTD SVG 20010904//EN"
 "http://www.w3.org/TR/2001/REC-SVG-20010904/DTD/svg10.dtd">
<svg version="1.0" xmlns="http://www.w3.org/2000/svg"
 width="260.000000pt" height="260.000000pt" viewBox="0 0 260.000000 260.000000"
 preserveAspectRatio="xMidYMid meet">
<metadata>
Created by potrace 1.11, written by Peter Selinger 2001-2013
</metadata>
<g transform="translate(0.000000,260.000000) scale(0.100000,-0.100000)"
fill="#000000" stroke="none">
<path d="M1175 2504 c-249 -44 -458 -198 -560 -409 -57 -119 -74 -199 -71
-338 4 -185 62 -327 224 -544 32 -43 66 -91 76 -106 32 -51 64 -151 71 -222 8
-84 27 -122 76 -147 33 -17 64 -19 342 -20 l305 -2 40 27 c45 29 57 58 67 155
10 108 55 202 170 352 76 101 133 204 166 300 30 87 33 105 33 220 0 227 -71
392 -232 541 -184 170 -442 241 -707 193z m345 -75 c443 -111 659 -575 449
-968 -22 -42 -78 -129 -124 -191 -121 -166 -157 -246 -170 -380 -10 -110 6
-105 -346 -104 -289 1 -301 1 -321 21 -13 14 -21 37 -24 72 -10 131 -46 215
-158 371 -168 234 -206 325 -214 505 -3 92 0 124 17 191 61 226 240 403 476
472 91 27 110 29 235 30 70 0 130 -7 180 -19z"/>
<path d="M1200 2335 c-133 -26 -242 -85 -340 -185 -161 -163 -191 -429 -74
-650 19 -36 72 -117 119 -180 104 -142 153 -239 174 -347 l16 -83 236 0 236 0
7 52 c17 128 68 228 219 433 170 230 199 434 92 652 -113 230 -408 362 -685
308z"/>
<path d="M1001 614 c-36 -15 -71 -60 -71 -91 0 -37 27 -81 60 -98 26 -14 77
-15 356 -13 l326 3 29 33 c42 46 41 103 -2 143 -17 16 -36 30 -43 30 -6 1
-150 2 -319 3 -217 1 -316 -2 -336 -10z m646 -69 c11 -8 14 -20 9 -38 -8 -32
29 -29 -348 -29 -286 -1 -308 2 -308 40 0 36 26 39 331 39 217 0 304 -3 316
-12z"/>
<path d="M1010 307 c0 -14 42 -69 80 -105 19 -18 62 -48 95 -65 54 -29 69 -32
145 -32 97 1 166 26 234 85 33 29 102 118 94 121 -16 7 -648 3 -648 -4z m498
-74 c-24 -30 -94 -56 -161 -61 -61 -4 -73 -2 -132 27 -36 18 -65 36 -65 40 0
4 83 8 185 8 162 1 184 -1 173 -14z"/>
</g>
</svg>
