<svg xmlns="http://www.w3.org/2000/svg" version="1" viewBox="0 0 260.000000 260.000000"><path d="M117.5 9.6c-24.9 4.4-45.8 19.8-56 40.9-5.7 11.9-7.4 19.9-7.1 33.8.4 18.5 6.2 32.7 22.4 54.4 3.2 4.3 6.6 9.1 7.6 10.6 3.2 5.1 6.4 15.1 7.1 22.2.8 8.4 2.7 12.2 7.6 14.7 3.3 1.7 6.4 1.9 34.2 2l30.5.2 4-2.7c4.5-2.9 5.7-5.8 6.7-15.5 1-10.8 5.5-20.2 17-35.2 7.6-10.1 13.3-20.4 16.6-30 3-8.7 3.3-10.5 3.3-22 0-22.7-7.1-39.2-23.2-54.1-18.4-17-44.2-24.1-70.7-19.3zm34.5 7.5c44.3 11.1 65.9 57.5 44.9 96.8-2.2 4.2-7.8 12.9-12.4 19.1-12.1 16.6-15.7 24.6-17 38-1 11 .6 10.5-34.6 10.4-28.9-.1-30.1-.1-32.1-2.1-1.3-1.4-2.1-3.7-2.4-7.2-1-13.1-4.6-21.5-15.8-37.1-16.8-23.4-20.6-32.5-21.4-50.5-.3-9.2 0-12.4 1.7-19.1 6.1-22.6 24-40.3 47.6-47.2 9.1-2.7 11-2.9 23.5-3 7 0 13 .7 18 1.9z"/><path d="M120 26.5C106.7 29.1 95.8 35 86 45c-16.1 16.3-19.1 42.9-7.4 65 1.9 3.6 7.2 11.7 11.9 18 10.4 14.2 15.3 23.9 17.4 34.7l1.6 8.3h47.2l.7-5.2c1.7-12.8 6.8-22.8 21.9-43.3 17-23 19.9-43.4 9.2-65.2-11.3-23-40.8-36.2-68.5-30.8zm-19.9 172.1c-3.6 1.5-7.1 6-7.1 9.1 0 3.7 2.7 8.1 6 9.8 2.6 1.4 7.7 1.5 35.6 1.3l32.6-.3 2.9-3.3c4.2-4.6 4.1-10.3-.2-14.3-1.7-1.6-3.6-3-4.3-3-.6-.1-15-.2-31.9-.3-21.7-.1-31.6.2-33.6 1zm64.6 6.9c1.1.8 1.4 2 .9 3.8-.8 3.2 2.9 2.9-34.8 2.9-28.6.1-30.8-.2-30.8-4 0-3.6 2.6-3.9 33.1-3.9 21.7 0 30.4.3 31.6 1.2zM101 229.3c0 1.4 4.2 6.9 8 10.5 1.9 1.8 6.2 4.8 9.5 6.5 5.4 2.9 6.9 3.2 14.5 3.2 9.7-.1 16.6-2.6 23.4-8.5 3.3-2.9 10.2-11.8 9.4-12.1-1.6-.7-64.8-.3-64.8.4zm49.8 7.4c-2.4 3-9.4 5.6-16.1 6.1-6.1.4-7.3.2-13.2-2.7-3.6-1.8-6.5-3.6-6.5-4 0-.4 8.3-.8 18.5-.8 16.2-.1 18.4.1 17.3 1.4z"/></svg>