<?xml version="1.0" encoding="utf-8"?>
<!-- Generator: Adobe Illustrator 17.1.0, SVG Export Plug-In . SVG Version: 6.00 Build 0)  -->
<!DOCTYPE svg PUBLIC "-//W3C//DTD SVG 1.1//EN" "http://www.w3.org/Graphics/SVG/1.1/DTD/svg11.dtd">
<svg version="1.1" id="Layer_1" xmlns="http://www.w3.org/2000/svg" xmlns:xlink="http://www.w3.org/1999/xlink" x="0px" y="0px"
	 width="362.7px" height="274.3px" viewBox="0 0 362.7 274.3" enable-background="new 0 0 362.7 274.3" xml:space="preserve">
<g>
	<path fill="#FFFFFF" d="M333.3,248.7h-4v-174c0-3-2.1-5-5.2-5H42.4c-2.9,0-6,1.8-6,5v174h-4v-174c0-5,4.5-9,10-9h281.8
		c5.3,0,9.2,3.7,9.2,9V248.7z"/>
</g>
<g>
	<path fill="#FFFFFF" d="M342.9,271.7H22.1c-0.2,0-19.8-0.4-19.8-24.1v-1.9h359.4l-0.2,2.2C361.4,248.8,359.1,271.7,342.9,271.7z
		 M6.2,249.7c1,18,15.2,18,15.9,18h320.8c10,0,13.4-13,14.3-18H6.2z"/>
</g>
<g>
	<path fill="#FFFFFF" d="M215.3,253.8c0,4.3-3.5,7.8-7.8,7.8h-51.3c-4.3,0-7.8-3.5-7.8-7.8v-0.3c0-4.3,3.5-7.8,7.8-7.8h51.3
		c4.3,0,7.8,3.5,7.8,7.8V253.8z M211.3,253.5c0-2.1-1.7-3.8-3.8-3.8h-51.3c-2.1,0-3.8,1.7-3.8,3.8v0.3c0,2.1,1.7,3.8,3.8,3.8h51.3
		c2.1,0,3.8-1.7,3.8-3.8V253.5z"/>
</g>
<g>
	<path fill="none" stroke="#C63693" stroke-width="4" stroke-linecap="round" stroke-linejoin="round" stroke-miterlimit="10" d="
		M158.2,269.7"/>
</g>
<g>
	<path fill="#FFFFFF" d="M318.3,249.7h-272v-169h272V249.7z M50.3,245.7h264v-161h-264V245.7z"/>
</g>
<g>
	<g>
		<path fill="#FFFFFF" d="M182.1,220.9C182.1,220.9,182.1,220.9,182.1,220.9c-6,0-11.3-3.9-13.7-7.6l-1.6-2.4h30.8l-1.6,2.4
			c-2.8,4.3-7.1,6.9-12.2,7.5C183.2,220.9,182.7,220.9,182.1,220.9z M173.1,214c2.3,2.1,5.6,3.8,9,3.8c0,0,0,0,0,0
			c0.4,0,0.8,0,1.2-0.1c3.2-0.4,5.9-1.6,8-3.7H173.1z M195.5,206.5h-26.6c-2.9,0-5.3-2.3-5.3-5.1c0-2.7,2.4-5,5.3-5h26.6
			c2.9,0,5.3,2.3,5.3,5C200.8,204.2,198.4,206.5,195.5,206.5z M168.9,199.6c-1.2,0-2.2,0.9-2.2,1.8c0,1.1,1,2,2.2,2h26.6
			c1.2,0,2.2-0.9,2.2-2c0-0.9-0.9-1.8-2.2-1.8H168.9z M194.2,192.2h-0.4c-1.9,0-9.5,0-15.7-0.1c-4.3,0-8,0-8.6,0
			c-3.6,0-6.6-2.6-6.6-5.9c0-4.8-1.6-9.6-4.8-14.1c-0.5-0.7-1.1-1.5-1.7-2.2c-2-2.7-4.1-5.5-5.9-8.5c-8.1-13.1-6.8-29.9,3.1-40.8
			c6.5-7,14.7-11,24.3-12l0.3,0c1.3-0.1,2.6-0.2,3.9-0.2c15.8,0,29.6,9.3,34.4,23.2c3.7,10.6,2.3,21-4.2,31
			c-1.3,2.2-2.9,4.3-4.4,6.3c-0.5,0.7-1,1.3-1.5,2c-3.2,4.4-5,8.6-5.4,12.9c0,0.4,0,0.7-0.1,1.1c0,0.3-0.1,0.6-0.1,0.9
			C201.2,189.5,198.3,192.2,194.2,192.2z M182.4,111.4c-1.2,0-2.4,0.1-3.7,0.2l-0.3,0c-8.8,0.9-16.4,4.6-22.3,11
			c-9,9.8-10.1,25.1-2.7,37.1c1.7,2.9,3.8,5.6,5.7,8.3c0.6,0.8,1.1,1.5,1.7,2.3c3.6,5.1,5.3,10.5,5.3,15.9c0,1.5,1.6,2.8,3.5,2.8
			c0.6,0,4.3,0,8.6,0c6.2,0,13.8,0.1,15.7,0.1h0.4c2.4,0,3.8-1.3,3.8-3.4c0-0.4,0-0.8,0.1-1.2c0-0.3,0.1-0.6,0.1-0.9l0-0.1
			c0.5-4.9,2.4-9.6,6-14.5c0.5-0.7,1-1.3,1.5-2c1.5-2,3-3.9,4.3-6.1c6-9.2,7.3-18.7,3.9-28.3C209.4,119.9,196.8,111.4,182.4,111.4z
			 M193.1,184.1h-22l-0.2-1.4c-0.7-5.5-2.8-10.6-6.2-15.2l-0.1-0.1c-0.8-1.2-1.7-2.4-2.6-3.5c-1.7-2.3-3.4-4.6-4.7-6.9
			c-5-8.2-6.4-21.4,2.2-31c5.3-5.7,11.6-8.8,19.3-9.5l0.2,0c1-0.1,1.9-0.2,3.1-0.2c12.1,0,23.1,7.3,26.9,17.7c3,8.5,2,16.5-3.2,24.2
			c-1,1.7-2.2,3.3-3.5,5l-0.6,0.7l-1.6,2.2c-4.2,5.8-6.4,11.1-7,16.6L193.1,184.1z"/>
	</g>
</g>
<g>
	<path fill="#FFFFFF" d="M182.3,53.6c-1.1,0-2-0.9-2-2v-46c0-1.1,0.9-2,2-2s2,0.9,2,2v46C184.3,52.7,183.4,53.6,182.3,53.6z"/>
</g>
<g>
	<path fill="#FFFFFF" d="M194.6,53.8c-0.5,0-1-0.2-1.4-0.6c-0.8-0.8-0.8-2,0-2.8l32.5-32.5c0.8-0.8,2-0.8,2.8,0c0.8,0.8,0.8,2,0,2.8
		l-32.5,32.5C195.7,53.6,195.2,53.8,194.6,53.8z"/>
</g>
<g>
	<path fill="#FFFFFF" d="M169.3,54.6c-0.5,0-1-0.2-1.4-0.6l-32.5-32.5c-0.8-0.8-0.8-2,0-2.8c0.8-0.8,2-0.8,2.8,0l32.5,32.5
		c0.8,0.8,0.8,2,0,2.8C170.3,54.4,169.8,54.6,169.3,54.6z"/>
</g>
</svg>
