<svg xmlns="http://www.w3.org/2000/svg" viewBox="0 0 362.7 274.3"><path fill="#FFF" d="M333.3 248.7h-4v-174c0-3-2.1-5-5.2-5H42.4c-2.9 0-6 1.8-6 5v174h-4v-174c0-5 4.5-9 10-9h281.8c5.3 0 9.2 3.7 9.2 9v174z"/><path fill="#FFF" d="M342.9 271.7H22.1c-.2 0-19.8-.4-19.8-24.1v-1.9h359.4l-.2 2.2c-.1.9-2.4 23.8-18.6 23.8zm-336.7-22c1 18 15.2 18 15.9 18h320.8c10 0 13.4-13 14.3-18H6.2z"/><path fill="#FFF" d="M215.3 253.8c0 4.3-3.5 7.8-7.8 7.8h-51.3c-4.3 0-7.8-3.5-7.8-7.8v-.3c0-4.3 3.5-7.8 7.8-7.8h51.3c4.3 0 7.8 3.5 7.8 7.8v.3zm-4-.3c0-2.1-1.7-3.8-3.8-3.8h-51.3c-2.1 0-3.8 1.7-3.8 3.8v.3c0 2.1 1.7 3.8 3.8 3.8h51.3c2.1 0 3.8-1.7 3.8-3.8v-.3z"/><path fill="#FFF" d="M318.3 249.7h-272v-169h272v169zm-268-4h264v-161h-264v161z"/><path fill="#FFF" d="M182.1 220.9c-6 0-11.3-3.9-13.7-7.6l-1.6-2.4h30.8l-1.6 2.4c-2.8 4.3-7.1 6.9-12.2 7.5-.6.1-1.1.1-1.7.1zm-9-6.9c2.3 2.1 5.6 3.8 9 3.8.4 0 .8 0 1.2-.1 3.2-.4 5.9-1.6 8-3.7h-18.2zm22.4-7.5h-26.6c-2.9 0-5.3-2.3-5.3-5.1 0-2.7 2.4-5 5.3-5h26.6c2.9 0 5.3 2.3 5.3 5 0 2.8-2.4 5.1-5.3 5.1zm-26.6-6.9c-1.2 0-2.2.9-2.2 1.8 0 1.1 1 2 2.2 2h26.6c1.2 0 2.2-.9 2.2-2 0-.9-.9-1.8-2.2-1.8h-26.6zm25.3-7.4h-.4c-1.9 0-9.5 0-15.7-.1h-8.6c-3.6 0-6.6-2.6-6.6-5.9 0-4.8-1.6-9.6-4.8-14.1-.5-.7-1.1-1.5-1.7-2.2-2-2.7-4.1-5.5-5.9-8.5-8.1-13.1-6.8-29.9 3.1-40.8 6.5-7 14.7-11 24.3-12h.3c1.3-.1 2.6-.2 3.9-.2 15.8 0 29.6 9.3 34.4 23.2 3.7 10.6 2.3 21-4.2 31-1.3 2.2-2.9 4.3-4.4 6.3-.5.7-1 1.3-1.5 2-3.2 4.4-5 8.6-5.4 12.9 0 .4 0 .7-.1 1.1 0 .3-.1.6-.1.9.4 3.7-2.5 6.4-6.6 6.4zm-11.8-80.8c-1.2 0-2.4.1-3.7.2h-.3c-8.8.9-16.4 4.6-22.3 11-9 9.8-10.1 25.1-2.7 37.1 1.7 2.9 3.8 5.6 5.7 8.3.6.8 1.1 1.5 1.7 2.3 3.6 5.1 5.3 10.5 5.3 15.9 0 1.5 1.6 2.8 3.5 2.8h8.6c6.2 0 13.8.1 15.7.1h.4c2.4 0 3.8-1.3 3.8-3.4 0-.4 0-.8.1-1.2 0-.3.1-.6.1-.9v-.1c.5-4.9 2.4-9.6 6-14.5.5-.7 1-1.3 1.5-2 1.5-2 3-3.9 4.3-6.1 6-9.2 7.3-18.7 3.9-28.3-4.6-12.7-17.2-21.2-31.6-21.2zm10.7 72.7h-22l-.2-1.4c-.7-5.5-2.8-10.6-6.2-15.2l-.1-.1c-.8-1.2-1.7-2.4-2.6-3.5-1.7-2.3-3.4-4.6-4.7-6.9-5-8.2-6.4-21.4 2.2-31 5.3-5.7 11.6-8.8 19.3-9.5h.2c1-.1 1.9-.2 3.1-.2 12.1 0 23.1 7.3 26.9 17.7 3 8.5 2 16.5-3.2 24.2-1 1.7-2.2 3.3-3.5 5l-.6.7-1.6 2.2c-4.2 5.8-6.4 11.1-7 16.6v1.4zM182.3 53.6c-1.1 0-2-.9-2-2v-46c0-1.1.9-2 2-2s2 .9 2 2v46c0 1.1-.9 2-2 2zm12.3.2c-.5 0-1-.2-1.4-.6-.8-.8-.8-2 0-2.8l32.5-32.5c.8-.8 2-.8 2.8 0 .8.8.8 2 0 2.8L196 53.2c-.3.4-.8.6-1.4.6zm-25.3.8c-.5 0-1-.2-1.4-.6l-32.5-32.5c-.8-.8-.8-2 0-2.8.8-.8 2-.8 2.8 0l32.5 32.5c.8.8.8 2 0 2.8-.4.4-.9.6-1.4.6z"/></svg>