<svg xmlns="http://www.w3.org/2000/svg" x="0px" y="0px" width="440px" height="440px" viewBox="0 0 440 440">
  <path fill="none" d="M399.899,188.823c13.093-30.954,1.814-52.443-16.886-81.704c-9.646-15.113-20.465-22.732-37.346-26.31 c-20.574-4.35-47.99-15.713-63.232-34.562c-17.3-21.295-37.147-25.661-61.621-25.661c-3.014,0-6.305,0.068-10.062,0.206 c-22.431,0.853-36.834,7.394-49.709,22.575c-15.203,17.938-39.386,32.25-60.172,35.609c-26.096,4.219-38.919,18.693-52.25,42.264 c-11.728,20.766-19.848,38.632-9.121,63.41c8.773,20.369,8.945,49.128,0.413,68.374c-12.373,28.011-1.373,47.29,12.555,71.657 c11.892,20.842,25.524,31.057,47.06,35.112c21.979,4.106,45.694,17.725,60.41,34.837C175.434,412.627,192.898,420,220.217,420 h0.193c32.508,0,46.966-10.039,58.67-24.002c12.073-14.427,34.516-32.492,58.022-35.521c32.019-4.143,45.2-24.44,59.106-50.618 c9.318-17.516,13.479-32.472,5.448-53.036C394.377,238.154,391.01,209.899,399.899,188.823z M219.874,46.653 c29.145,0,52.854,23.71,52.854,52.854s-23.71,52.854-52.854,52.854c-29.144,0-52.854-23.71-52.854-52.854 S190.73,46.653,219.874,46.653z M248.618,220.256c0,15.85-12.895,28.744-28.744,28.744s-28.745-12.895-28.745-28.744 s12.895-28.745,28.745-28.745S248.618,204.406,248.618,220.256z M117.374,109.01c29.144,0,52.854,23.711,52.854,52.854 s-23.71,52.854-52.854,52.854s-52.854-23.711-52.854-52.854S88.229,109.01,117.374,109.01z M117.374,331.642 c-29.144,0-52.854-23.71-52.854-52.854s23.71-52.855,52.854-52.855s52.854,23.711,52.854,52.855S146.518,331.642,117.374,331.642z M219.874,393.856c-29.144,0-52.854-23.71-52.854-52.854s23.71-52.854,52.854-52.854c29.145,0,52.854,23.71,52.854,52.854 S249.019,393.856,219.874,393.856z M322.374,331.642c-29.144,0-52.854-23.71-52.854-52.854s23.71-52.855,52.854-52.855 c29.145,0,52.855,23.711,52.855,52.855S351.519,331.642,322.374,331.642z M322.374,214.719c-29.144,0-52.854-23.711-52.854-52.854 s23.71-52.854,52.854-52.854c29.145,0,52.855,23.711,52.855,52.854S351.519,214.719,322.374,214.719z"/>
  <path fill="#FFFFFF" d="M414.257,194.902c17.265-40.817-1.528-70.225-18.107-96.165c-11.98-18.772-26.11-28.692-47.253-33.173 c-22.567-4.771-43.896-16.199-54.352-29.13C272.042,8.734,244.646,5,220.814,5c-3.207,0-6.687,0.069-10.645,0.215 c-26.95,1.023-45.197,9.417-61.015,28.07C136.176,48.6,115.774,60.773,98.386,63.582c-35.614,5.758-51.364,28.812-63.333,49.975 c-12.917,22.874-23.391,45.987-9.861,77.243c6.975,16.191,7.183,40.716,0.47,55.859c-15.557,35.219-0.9,60.838,13.272,85.635 c14.046,24.617,31.845,37.713,57.722,42.586c18.43,3.443,39.112,15.255,51.468,29.624C166.688,426.063,188.248,435,220.217,435 h0.402c24.062,0,49.247-4.038,70.41-29.287c13.109-15.665,32.876-27.733,48.069-29.691c39.301-5.083,55.95-30.713,70.872-58.803 c9.586-18.014,16.971-38.474,6.206-66.037C410.051,235.477,407.426,211.099,414.257,194.902z M396.209,309.858 c-13.906,26.178-27.088,46.476-59.106,50.618c-23.507,3.029-45.949,21.095-58.022,35.521C267.376,409.961,252.918,420,220.41,420 h-0.193c-27.318,0-44.783-7.373-60.279-25.369c-14.715-17.112-38.431-30.73-60.41-34.837c-21.535-4.056-35.168-14.271-47.06-35.112 c-13.927-24.367-24.928-43.646-12.555-71.657c8.532-19.246,8.36-48.005-0.413-68.374c-10.727-24.778-2.606-42.645,9.121-63.41 c13.33-23.57,26.153-38.045,52.25-42.264c20.787-3.359,44.969-17.671,60.172-35.609c12.875-15.182,27.278-21.723,49.709-22.575 c3.757-0.138,7.048-0.206,10.062-0.206c24.474,0,44.321,4.366,61.621,25.661c15.242,18.85,42.658,30.213,63.232,34.562 c16.881,3.577,27.7,11.196,37.346,26.31c18.7,29.261,29.979,50.75,16.886,81.704c-8.89,21.076-5.522,49.331,1.758,67.999 C409.688,277.387,405.527,292.343,396.209,309.858z"/>
  <path fill="#FFFFFF" d="M117.374,225.932c-29.144,0-52.854,23.711-52.854,52.855s23.71,52.854,52.854,52.854 s52.854-23.71,52.854-52.854S146.518,225.932,117.374,225.932z M117.374,316.642c-20.873,0-37.854-16.981-37.854-37.854 c0-20.874,16.981-37.855,37.854-37.855s37.854,16.981,37.854,37.855C155.228,299.66,138.247,316.642,117.374,316.642z"/>
  <path fill="#FFFFFF" d="M117.374,214.719c29.144,0,52.854-23.711,52.854-52.854s-23.71-52.854-52.854-52.854 s-52.854,23.711-52.854,52.854S88.229,214.719,117.374,214.719z M117.374,124.01c20.873,0,37.854,16.981,37.854,37.854 s-16.981,37.854-37.854,37.854s-37.854-16.981-37.854-37.854S96.5,124.01,117.374,124.01z"/>
  <path fill="#FFFFFF" d="M191.129,220.256c0,15.85,12.895,28.744,28.745,28.744s28.744-12.895,28.744-28.744 s-12.895-28.745-28.744-28.745S191.129,204.406,191.129,220.256z M233.618,220.256c0,7.578-6.166,13.744-13.744,13.744 c-7.579,0-13.745-6.166-13.745-13.744c0-7.579,6.166-13.745,13.745-13.745C227.452,206.511,233.618,212.677,233.618,220.256z"/>
  <path fill="#FFFFFF" d="M219.874,288.147c-29.144,0-52.854,23.71-52.854,52.854s23.71,52.854,52.854,52.854 c29.145,0,52.854-23.71,52.854-52.854S249.019,288.147,219.874,288.147z M219.874,378.856c-20.873,0-37.854-16.981-37.854-37.854 s16.981-37.854,37.854-37.854s37.854,16.981,37.854,37.854S240.747,378.856,219.874,378.856z"/>
  <path fill="#FFFFFF" d="M219.874,152.362c29.145,0,52.854-23.71,52.854-52.854s-23.71-52.854-52.854-52.854 c-29.144,0-52.854,23.71-52.854,52.854S190.73,152.362,219.874,152.362z"/>
  <path fill="#FFFFFF" d="M322.374,225.932c-29.144,0-52.854,23.711-52.854,52.855s23.71,52.854,52.854,52.854 c29.145,0,52.855-23.71,52.855-52.854S351.519,225.932,322.374,225.932z M322.374,316.642c-20.872,0-37.854-16.981-37.854-37.854 c0-20.874,16.981-37.855,37.854-37.855c20.874,0,37.855,16.981,37.855,37.855C360.229,299.66,343.248,316.642,322.374,316.642z"/>
  <path fill="#FFFFFF" d="M322.374,109.01c-29.144,0-52.854,23.711-52.854,52.854s23.71,52.854,52.854,52.854 c29.145,0,52.855-23.711,52.855-52.854S351.519,109.01,322.374,109.01z M322.374,199.719c-20.872,0-37.854-16.981-37.854-37.854 s16.981-37.854,37.854-37.854c20.874,0,37.855,16.981,37.855,37.854S343.248,199.719,322.374,199.719z"/>
</svg>
