<svg xmlns="http://www.w3.org/2000/svg" viewBox="0 0 440 440"><path fill="none" d="M399.9 188.823c13.092-30.954 1.813-52.443-16.887-81.704-9.646-15.12-20.465-22.74-37.346-26.31-20.574-4.35-47.99-15.72-63.232-34.57-17.3-21.3-37.147-25.66-61.62-25.66-3.015 0-6.306.062-10.063.2-22.43.853-36.834 7.394-49.71 22.575-15.202 17.94-39.385 32.25-60.17 35.61-26.097 4.22-38.92 18.692-52.25 42.263-11.73 20.764-19.85 38.63-9.122 63.41 8.773 20.37 8.945 49.126.413 68.372-12.373 28.01-1.373 47.29 12.555 71.657 11.892 20.84 25.524 31.056 47.06 35.11 21.98 4.106 45.694 17.725 60.41 34.837 15.496 17.998 32.96 25.37 60.28 25.37h.192c32.508 0 46.966-10.04 58.67-24 12.073-14.43 34.516-32.494 58.022-35.52 32.02-4.146 45.2-24.44 59.106-50.62 9.318-17.517 13.48-32.47 5.448-53.037-7.28-18.67-10.646-46.922-1.757-68zM219.873 46.653c29.145 0 52.854 23.71 52.854 52.854s-23.71 52.854-52.854 52.854-52.854-23.71-52.854-52.85 23.71-52.85 52.85-52.85zm28.744 173.603c0 15.85-12.895 28.744-28.744 28.744s-28.745-12.895-28.745-28.744 12.894-28.745 28.744-28.745 28.744 12.9 28.744 28.75zM117.374 109.01c29.144 0 52.854 23.71 52.854 52.854s-23.71 52.854-52.854 52.854-52.854-23.71-52.854-52.854 23.71-52.854 52.854-52.854zm0 222.632c-29.144 0-52.854-23.71-52.854-52.854s23.71-52.855 52.854-52.855 52.854 23.71 52.854 52.855-23.71 52.854-52.854 52.854zm102.5 62.214c-29.144 0-52.854-23.71-52.854-52.854s23.71-52.854 52.854-52.854c29.145 0 52.854 23.71 52.854 52.854s-23.71 52.854-52.854 52.854zm102.5-62.214c-29.144 0-52.854-23.71-52.854-52.854s23.71-52.855 52.854-52.855c29.145 0 52.855 23.71 52.855 52.855s-23.71 52.854-52.86 52.854zm0-116.923c-29.144 0-52.854-23.72-52.854-52.86S293.23 109 322.374 109c29.145 0 52.855 23.71 52.855 52.854s-23.71 52.854-52.86 52.854z"/><path fill="#FFF" d="M414.257 194.902c17.265-40.817-1.528-70.225-18.107-96.165-11.98-18.772-26.11-28.692-47.253-33.173-22.567-4.77-43.896-16.2-54.352-29.13C272.042 8.734 244.645 5 220.815 5c-3.208 0-6.688.07-10.646.215-26.95 1.023-45.2 9.417-61.02 28.07-12.98 15.315-33.38 27.488-50.77 30.297-35.61 5.758-51.36 28.812-63.33 49.975-12.92 22.874-23.39 45.987-9.86 77.243 6.97 16.19 7.18 40.716.47 55.86-15.56 35.218-.9 60.837 13.27 85.634 14.05 24.616 31.85 37.713 57.72 42.586 18.43 3.443 39.112 15.255 51.47 29.624C166.69 426.064 188.25 435 220.216 435h.402c24.06 0 49.24-4.038 70.41-29.287 13.1-15.665 32.87-27.733 48.06-29.69 39.3-5.084 55.95-30.714 70.87-58.804 9.585-18.02 16.97-38.48 6.205-66.04-6.125-15.71-8.75-40.09-1.92-56.28zM396.21 309.858c-13.907 26.178-27.09 46.476-59.107 50.618-23.507 3.03-45.95 21.095-58.022 35.52C267.38 409.962 252.92 420 220.41 420h-.193c-27.318 0-44.783-7.373-60.28-25.37-14.714-17.11-38.43-30.73-60.41-34.836-21.534-4.056-35.167-14.27-47.06-35.112-13.926-24.367-24.927-43.646-12.554-71.657 8.532-19.246 8.36-48.005-.413-68.374-10.727-24.77-2.606-42.64 9.12-63.41 13.33-23.57 26.154-38.04 52.25-42.26 20.788-3.36 44.97-17.67 60.173-35.61 12.875-15.18 27.278-21.72 49.71-22.57 3.756-.14 7.047-.202 10.06-.202 24.475 0 44.322 4.365 61.622 25.66 15.242 18.85 42.658 30.213 63.232 34.56 16.88 3.58 27.7 11.2 37.346 26.31 18.7 29.26 29.98 50.75 16.886 81.707-8.89 21.076-5.53 49.33 1.75 68 8.03 20.563 3.87 35.52-5.45 53.034z"/><path fill="#FFF" d="M117.374 225.932c-29.144 0-52.854 23.71-52.854 52.855s23.71 52.854 52.854 52.854 52.854-23.71 52.854-52.85-23.71-52.85-52.854-52.85zm0 90.71c-20.873 0-37.854-16.98-37.854-37.854s16.98-37.855 37.854-37.855 37.854 16.98 37.854 37.855c0 20.872-16.98 37.854-37.854 37.854zm0-101.922c29.144 0 52.854-23.712 52.854-52.855s-23.71-52.854-52.854-52.854-52.854 23.72-52.854 52.86 23.71 52.86 52.854 52.86zm0-90.71c20.873 0 37.854 16.98 37.854 37.854s-16.98 37.854-37.854 37.854-37.854-16.98-37.854-37.854 16.98-37.854 37.854-37.854zm73.756 96.246c0 15.85 12.894 28.744 28.744 28.744s28.744-12.895 28.744-28.744-12.895-28.745-28.744-28.745-28.745 12.9-28.745 28.75zm42.488 0c0 7.578-6.166 13.744-13.744 13.744-7.58 0-13.745-6.166-13.745-13.744 0-7.58 6.16-13.745 13.74-13.745s13.74 6.17 13.74 13.75zm-13.744 67.89c-29.144 0-52.854 23.71-52.854 52.855s23.71 52.86 52.854 52.86c29.145 0 52.854-23.71 52.854-52.85s-23.71-52.85-52.854-52.85zm0 90.71c-20.873 0-37.854-16.98-37.854-37.854s16.98-37.854 37.854-37.854 37.854 16.98 37.854 37.854-16.98 37.854-37.854 37.854zm0-226.494c29.145 0 52.854-23.71 52.854-52.854s-23.71-52.854-52.854-52.854-52.854 23.71-52.854 52.854 23.71 52.854 52.854 52.854zm102.5 73.57c-29.144 0-52.854 23.71-52.854 52.855s23.71 52.854 52.854 52.854c29.145 0 52.855-23.71 52.855-52.85s-23.71-52.85-52.86-52.85zm0 90.71c-20.872 0-37.854-16.98-37.854-37.854s16.98-37.855 37.854-37.855 37.855 16.98 37.855 37.855c0 20.872-16.99 37.854-37.86 37.854zm0-207.632c-29.144 0-52.854 23.71-52.854 52.854s23.71 52.854 52.854 52.854c29.145 0 52.855-23.71 52.855-52.854s-23.71-52.854-52.86-52.854zm0 90.71c-20.872 0-37.854-16.982-37.854-37.855s16.98-37.854 37.854-37.854S360.23 141 360.23 161.87s-16.988 37.855-37.86 37.855z"/></svg>